<svg width="65" height="32" viewBox="0 0 65 32" fill="none" xmlns="http://www.w3.org/2000/svg">
<mask id="mask0_162_148" style="mask-type:alpha" maskUnits="userSpaceOnUse" x="20" y="4" width="25" height="24">
<rect x="20.25" y="4" width="24" height="24" fill="#D9D9D9"/>
</mask>
<g mask="url(#mask0_162_148)">
<path d="M34.25 26V22.925L39.775 17.425C39.925 17.275 40.0917 17.1667 40.275 17.1C40.4583 17.0333 40.6417 17 40.825 17C41.025 17 41.2167 17.0375 41.4 17.1125C41.5833 17.1875 41.75 17.3 41.9 17.45L42.825 18.375C42.9583 18.525 43.0625 18.6917 43.1375 18.875C43.2125 19.0583 43.25 19.2417 43.25 19.425C43.25 19.6083 43.2167 19.7958 43.15 19.9875C43.0833 20.1792 42.975 20.35 42.825 20.5L37.325 26H34.25ZM35.75 24.5H36.7L39.725 21.45L39.275 20.975L38.8 20.525L35.75 23.55V24.5ZM26.25 26C25.7 26 25.2292 25.8042 24.8375 25.4125C24.4458 25.0208 24.25 24.55 24.25 24V8C24.25 7.45 24.4458 6.97917 24.8375 6.5875C25.2292 6.19583 25.7 6 26.25 6H34.25L40.25 12V15H38.25V13H33.25V8H26.25V24H32.25V26H26.25ZM39.275 20.975L38.8 20.525L39.725 21.45L39.275 20.975Z" fill="white"/>
</g>
<mask id="mask1_162_148" style="mask-type:alpha" maskUnits="userSpaceOnUse" x="20" y="4" width="25" height="24">
<rect x="20.25" y="4" width="24" height="24" fill="#D9D9D9"/>
</mask>
<g mask="url(#mask1_162_148)">
</g>
</svg>
